PathFileType	4	(X/Y/Z)	C:\Users\WrightLab\Desktop\Jo\P5V14.trc
DataRate	CameraRate	NumFrames	NumMarkers	Units	OrigDataRate	OrigDataStartFrame	OrigNumFrames
100.00	100.00	       9	19	mm	100.00	216	       575
Frame#	Time	Headset_Front			Headset_Back			Headset_Left			Headset_Right			Left_Shoulder			Right_Shoulder			Sternum			C7			Left Elbow			Right Elbow			Left Wrist			Right Wrist			Left ASIS			Right ASIS			S2			Left Knee			Right Knee			Left Ankle			Right Ankle			
		X1	Y1	Z1	X2	Y2	Z2	X3	Y3	Z3	X4	Y4	Z4	X5	Y5	Z5	X6	Y6	Z6	X7	Y7	Z7	X8	Y8	Z8	X9	Y9	Z9	X10	Y10	Z10	X11	Y11	Z11	X12	Y12	Z12	X13	Y13	Z13	X14	Y14	Z14	X15	Y15	Z15	X16	Y16	Z16	X17	Y17	Z17	X18	Y18	Z18	X19	Y19	Z19	

216	2.150	137.91179	1579.17480	138.38539							93.83300	1623.50281	0.88770	477.15009	1503.65271	13.71974	90.76868	1411.02466	-126.15470	255.26683	1308.50818	32.21837	309.51056	1500.70154	-177.90857	607.91534	1215.00696	21.50834	76.65015	1133.46997	-219.59293	689.55347	986.65912	88.48787	30.34747	957.73328	-41.78055	411.36444	929.38489	109.80503	176.30583	919.95319	-21.33711	450.21167	956.55560	-220.17664	509.38995	533.43848	150.25560	275.81860	476.63568	-69.45857	560.86633	108.01481	56.05883	351.11450	244.85060	-352.52664	
217	2.160	134.39589	1581.75500	144.34187							91.63125	1626.44653	6.54524	473.50314	1506.16284	24.73005	89.02967	1415.21790	-121.74837	251.16499	1311.46350	38.60421	309.79056	1503.78735	-168.65665	604.31732	1217.62683	35.99453	77.80598	1136.54224	-217.38522	682.62103	989.61475	107.62505	28.91602	960.32977	-38.15082	406.09216	931.73706	119.42224	173.24782	923.02649	-16.00982	450.21924	959.31140	-207.25209	509.67526	536.37048	160.99701	263.32089	479.29730	-47.13720	560.86194	108.82069	57.01599	355.75180	253.00198	-332.66730	
218	2.170	130.76630	1584.57373	150.07677	312.19498	1674.34790	81.94415				89.38692	1629.13489	12.05996	469.94208	1508.84558	36.79262	88.43261	1418.48486	-118.09119	246.46802	1313.67908	45.04362	310.30447	1507.06885	-160.94392	599.50360	1220.26367	50.92112	80.10197	1139.12268	-212.03107	674.60687	992.46497	126.90909	28.28662	962.80261	-35.88598	401.25424	933.76044	128.86841	170.25102	926.28149	-11.45730	450.15994	962.10406	-195.05820	510.32913	539.22052	171.42943	249.84271	480.75558	-25.03300	560.85101	110.45412	58.34941	360.15036	259.29236	-312.44226	
219	2.180	126.39539	1587.34546	156.53078	309.26297	1675.98315	89.46510				86.93345	1632.32190	17.86666	465.40433	1511.11523	48.44373	86.85498	1421.78271	-114.00727	242.12309	1316.20764	51.16308	309.56152	1509.75122	-152.81775	594.40112	1222.42200	66.28388	81.27585	1142.37646	-207.46304	666.62219	995.56769	146.12057	27.30565	965.66992	-32.71899	396.12585	936.25726	137.27852	166.58348	929.25824	-6.83453	449.81378	965.28125	-183.16316	510.98865	542.03149	181.32072	234.62520	481.77139	-0.76563	560.83423	111.81568	59.60641	365.29770	264.46335	-291.60138	
220	2.190	121.77208	1590.37720	163.49646							84.18874	1636.41418	24.00997	461.10049	1513.64697	59.25187	84.79675	1425.36670	-109.41899	236.91393	1319.19824	56.27541	309.19824	1512.57129	-143.85724	589.54126	1224.98901	80.72997	82.87318	1145.16235	-203.28329	658.46075	999.01978	165.27315	25.93736	968.82336	-29.58708	390.49527	938.94800	145.91283	163.29994	931.96655	-2.39920	449.67880	968.06378	-171.18401	510.90714	544.37573	190.27255	220.00798	481.31616	24.33319	560.79871	113.28372	60.66035	369.39728	268.83112	-270.06848	
221	2.200	117.69783	1592.92834	169.64230							81.39836	1640.62390	30.02255	456.20493	1516.59680	70.72693	83.99224	1428.31970	-105.58761	232.84319	1321.61914	64.03156	308.53137	1515.48792	-135.80714	583.69720	1227.71082	96.89761	84.04914	1148.09644	-199.53699	649.52313	1002.00183	184.09106	24.80929	971.73883	-26.74463	385.60370	940.43604	152.75270	160.18871	934.83759	1.65907	448.92880	970.56805	-158.81569	511.97064	546.99854	199.35666	207.59705	481.04428	48.06896	559.95856	114.59223	61.83113	372.84531	272.23151	-247.73816	
222	2.210	112.92010	1595.60913	176.00584							78.63255	1644.19482	35.96911	451.16519	1517.31030	80.14214	82.88018	1431.00793	-101.63516	228.51447	1324.25537	70.88284	307.58395	1517.67407	-128.21439	577.98926	1230.65979	111.50390	84.77590	1150.49158	-195.73695	640.24451	1005.35083	203.42744	22.98748	975.02631	-23.64171	381.00244	943.57947	162.00076	156.67010	937.29688	6.21090	447.55557	973.58557	-146.69431	511.89282	548.97723	207.90736	195.10472	483.56161	69.75400	559.61243	115.93592	63.23291	375.00446	275.16772	-225.88190	
223	2.220	108.47408	1598.51685	182.12407							75.62039	1647.01611	41.87038	446.72458	1519.92249	92.94983	81.92676	1432.79321	-97.55640	224.60368	1325.84619	77.24314	306.99640	1520.19177	-120.83998	570.58539	1232.93738	127.33447	84.98907	1152.94763	-193.26816	630.97339	1008.59717	222.48036	21.61451	978.21045	-20.61166	375.72849	945.47644	169.99426	152.91518	939.74719	10.74016	444.76196	975.17676	-133.14206	512.05096	550.70270	216.83174	184.09456	492.50476	87.74144	558.74567	117.76816	63.79484	376.98300	276.35715	-202.90025	
224	2.230	104.44209	1600.77197	188.23372							72.51698	1648.91272	47.83275	441.87408	1521.87427	103.16187	80.06221	1435.11890	-92.92667	220.32195	1327.91528	83.48393	306.06604	1522.29016	-111.90355	564.33417	1234.37158	141.99303	85.87640	1155.11157	-188.38795	620.62543	1011.79437	241.45667	19.91679	981.00409	-17.67409	370.16714	947.46246	178.10414	149.24797	941.74854	15.01662	443.88138	977.12219	-122.07246	511.28674	551.97998	223.80315	173.59772	502.67123	102.57359	558.22504	119.70209	64.85878	377.72305	276.74432	-179.65958	
